<?xml version="1.0" encoding="UTF-8" standalone="no"?>
<!DOCTYPE svg PUBLIC "-//W3C//DTD SVG 1.1//EN" "http://www.w3.org/Graphics/SVG/1.1/DTD/svg11.dtd">
<svg width="100%" height="100%"  viewBox="0 0 60 60" version="1.1" xmlns="http://www.w3.org/2000/svg" xmlns:xlink="http://www.w3.org/1999/xlink" xml:space="preserve" xmlns:serif="http://www.serif.com/" style="fill-rule:evenodd;clip-rule:evenodd;stroke-miterlimit:10;">
    <g transform="matrix(2.17168,0,0,2.17168,-34.9678,-36.0651)">
        <g id="_--IDML-" serif:id=" [IDML]" transform="matrix(4.94191,0,0,4.94191,-463.809,396.822)">
            <path fill="#1811fe" d="M101.258,-74.846L101.258,-72.19L97.954,-72.19L97.954,-75.494L100.61,-75.494L100.888,-75.773L97.676,-75.773L97.676,-71.912L101.537,-71.912L101.537,-75.124L101.258,-74.846Z" style="fill-rule:nonzero;stroke:rgb(153,153,153);stroke-width:0.01px;"/>
        </g>
        <g id="_--IDML-1" serif:id=" [IDML]" transform="matrix(4.94191,0,0,4.94191,-463.809,396.822)">
            <path fill="#1811fe" d="M100.468,-76.744L100.468,-76.431L101.973,-76.431L99.759,-74.217L99.981,-73.995L102.195,-76.209L102.195,-74.704L102.508,-74.704L102.508,-76.744L100.468,-76.744Z" style="fill-rule:nonzero;"/>
        </g>
    </g>
</svg>
