<svg width="21" height="13" viewBox="0 0 21 13" fill="none" xmlns="http://www.w3.org/2000/svg">
<path fill-rule="evenodd" clip-rule="evenodd" d="M16.6893 5.6167C18.3005 6.09827 20.5058 6.75614 20.5058 9.08639C20.5058 10.6178 19.4339 11.6002 17.6373 12.0754C17.0932 12.2198 16.4947 12.2921 15.883 12.2921C13.8759 12.2921 11.7219 11.7333 10.7964 10.1841C10.3582 9.4507 10.0216 8.57058 9.66694 7.63858C8.62994 4.92345 7.79675 3.14008 5.74725 3.14008C3.64038 3.14008 2.74075 4.32602 2.74075 7.10352C2.74075 7.13708 2.86588 10.2685 5.67875 10.2685C7.40044 10.2685 8.31232 9.0537 8.337 9.01927L9.31369 10.9305C9.19469 11.1255 8.67413 12.2198 5.67875 12.2198C2.10819 12.2198 0.502441 9.31764 0.502441 7.10358C0.502441 1.75395 3.78982 0.955266 5.74725 0.955266C9.5055 0.955266 10.8118 4.37533 11.7652 6.87414C12.0858 7.71658 12.3882 8.50945 12.7294 9.08283C13.3125 10.0586 15.4541 10.6 17.0542 10.1792C17.8595 9.96695 18.2683 9.59789 18.2683 9.08645C18.2683 8.48227 17.6824 8.20045 16.0347 7.70801C14.4685 7.23964 12.3809 6.59845 12.3809 4.37033C12.3809 2.71439 13.6447 1.28652 15.6173 0.995891C17.5439 0.710266 19.8537 1.65083 20.5254 3.77427L18.3868 4.42139C18.0531 3.36577 16.7461 3.03958 15.9514 3.15652C15.8091 3.17964 14.5596 3.5052 14.5596 4.37039C14.5598 4.88902 15.1188 5.14808 16.6893 5.6167Z" fill="#1811FE"/>
</svg>
