<svg width="22" height="22" viewBox="0 0 22 22" fill="none" xmlns="http://www.w3.org/2000/svg">
<path d="M21.307 11.2495C21.307 5.44775 16.7195 0.744507 11.0605 0.744507C5.40147 0.744507 0.813965 5.44775 0.813965 11.2495C0.813965 15.9175 3.78618 19.8696 7.8943 21.2375C8.45567 21.0612 8.48201 20.7108 8.48201 20.7108C8.48201 20.7108 8.48201 19.673 8.48201 18.7141C7.86503 18.8304 7.09873 18.8319 6.81988 18.8319C6.48028 18.8319 5.34951 18.5422 4.85182 17.2321C4.35413 15.922 3.42682 15.7944 3.42682 15.5626C3.42682 15.3307 3.63029 15.2842 3.63029 15.2842C3.63029 15.2842 3.75471 15.2842 4.30876 15.2842C4.8628 15.2842 5.41684 16.2349 5.80182 16.8149C6.1868 17.3949 7.11337 17.5105 7.56641 17.5105C7.82038 17.5105 8.21414 17.3792 8.51349 17.2636C8.63571 16.4517 9.09314 15.841 9.09314 15.841C4.52393 15.4238 4.41122 11.9218 4.41122 10.5539C4.41122 9.18603 5.49735 7.84064 5.49735 7.84064C5.49735 7.84064 4.97112 6.30991 5.63275 5.05756C7.05775 5.06882 8.48275 6.17034 8.48275 6.17034C8.48275 6.17034 9.77088 5.75389 11.0605 5.75389C12.3501 5.75389 13.6389 6.17109 13.6389 6.17109C13.6389 6.17109 15.0639 5.06957 16.4889 5.05831C17.1506 6.31066 16.6243 7.84139 16.6243 7.84139C16.6243 7.84139 17.7105 9.18603 17.7105 10.5547C17.7105 11.9226 17.597 15.4245 13.0285 15.8417C13.0285 15.8417 13.6389 16.6536 13.6389 17.6508C13.6389 18.648 13.6389 20.7123 13.6389 20.7123C13.6389 20.7123 13.6646 21.0619 14.2266 21.239C18.3348 19.8696 21.307 15.9175 21.307 11.2495Z" fill="#1811FE"/>
</svg>
