<svg width="20" height="15" viewBox="0 0 20 15" fill="none" xmlns="http://www.w3.org/2000/svg">
<path d="M0.408517 1.67473C0.158437 2.07842 0.0145264 2.55153 0.0145264 3.05766V11.6918C0.0145264 13.1724 1.25043 14.3748 2.77237 14.3748H16.2594C17.7813 14.3748 19.0145 13.1724 19.0145 11.6918V3.05766C19.0145 2.55136 18.8708 2.07809 18.621 1.6743L11.2116 8.4309C10.2743 9.36816 8.75473 9.36816 7.81747 8.4309L0.408517 1.67473Z" fill="#1811FE"/>
<path d="M1.62225 0.618467C1.97242 0.46198 2.36199 0.374756 2.77237 0.374756H16.2594C16.6692 0.374756 17.058 0.461733 17.4075 0.617804L10.0802 7.29953C9.76779 7.61195 9.26126 7.61195 8.94884 7.29953L1.62225 0.618467Z" fill="#1811FE"/>
</svg>
