<svg width="22" height="22" viewBox="0 0 22 22" fill="none" xmlns="http://www.w3.org/2000/svg">
<path d="M5.53291 21.0041H1.12983V6.84069H5.53291V21.0041ZM3.29676 5.10299C1.74022 5.10299 0.700602 3.99992 0.73291 2.63607C0.700602 1.20876 1.74022 0.136841 3.32906 0.136841C4.92022 0.136841 5.92637 1.20876 5.95868 2.63607C5.95983 3.99992 4.92137 5.10299 3.29676 5.10299ZM21.8991 21.0041H17.4971V13.1557C17.4971 11.3303 16.8591 10.0853 15.2656 10.0853C14.0506 10.0853 13.326 10.9253 13.0364 11.7365C12.921 11.9972 12.8633 12.4322 12.8633 12.8361V21.0041H8.46022V11.3603C8.46022 9.59261 8.40253 8.08684 8.34483 6.84184H12.1675L12.3706 8.78261H12.4583C13.0375 7.88376 14.4856 6.52338 16.8314 6.52338C19.7275 6.52338 21.8991 8.43415 21.8991 12.6053V21.0041Z" fill="#1811FE"/>
</svg>
