<?xml version="1.0" encoding="UTF-8" standalone="no"?>
<!DOCTYPE svg PUBLIC "-//W3C//DTD SVG 1.1//EN" "http://www.w3.org/Graphics/SVG/1.1/DTD/svg11.dtd">
<svg width="100%" height="100%" viewBox="0 0 200 200" version="1.1" xmlns="http://www.w3.org/2000/svg" xmlns:xlink="http://www.w3.org/1999/xlink" xml:space="preserve" xmlns:serif="http://www.serif.com/" style="fill-rule:evenodd;clip-rule:evenodd;stroke-linejoin:round;stroke-miterlimit:2;">
    <g transform="matrix(0.253205,0,0,0.253205,100,100)">
        <g transform="matrix(1,0,0,1,-177.721,-197.207)">
            <clipPath id="_clip1">
                <rect x="0" y="0" width="355.443" height="394.415"/>
            </clipPath>
            <g clip-path="url(#_clip1)">
                <g id="layer1" transform="matrix(1,0,0,1,-194.564,-333.441)">
                    <path id="path110" d="M424.393,477.823C424.393,463.834 413.052,452.493 399.063,452.493L341.54,452.493C327.554,452.493 316.213,463.834 316.213,477.823C316.213,491.813 327.554,503.153 341.54,503.153L399.063,503.153C413.052,503.153 424.393,491.813 424.393,477.823M459.867,622.139C473.856,622.139 485.197,610.798 485.197,596.809L485.197,539.286C485.197,525.296 473.856,513.959 459.867,513.959C445.878,513.959 434.537,525.296 434.537,539.286L434.537,596.809C434.537,610.798 445.878,622.139 459.867,622.139M280.777,441.65C294.766,441.65 306.107,430.309 306.107,416.319L306.107,358.797C306.107,344.807 294.766,333.469 280.777,333.469C266.788,333.469 255.45,344.807 255.45,358.797L255.45,416.319C255.45,430.309 266.788,441.65 280.777,441.65M280.738,622.139C294.728,622.139 306.068,610.798 306.068,596.809L306.068,539.286C306.068,525.296 294.728,513.959 280.738,513.959C266.749,513.959 255.408,525.296 255.408,539.286L255.408,596.809C255.408,610.798 266.749,622.139 280.738,622.139M459.842,441.624C473.832,441.624 485.173,430.283 485.173,416.294L485.173,358.771C485.173,344.785 473.832,333.441 459.842,333.441C445.853,333.441 434.512,344.785 434.512,358.771L434.512,416.294C434.512,430.283 445.853,441.624 459.842,441.624M533.055,727.855C525.934,727.855 519.719,726.047 514.634,722.316L519.436,717.738C523.108,720.168 527.97,721.752 533.111,721.752C539.102,721.752 542.662,719.49 542.662,716.157C542.662,713.334 540.742,711.186 536.391,710.732C534.244,710.508 532.489,710.281 530.002,709.997C521.639,709.036 517.177,704.517 517.177,698.694C517.177,691.8 522.996,686.942 532.943,686.942C538.934,686.942 544.187,688.694 548.594,691.125L544.527,696.154C541.025,694.287 536.899,693.045 532.604,693.045C528.138,693.045 524.521,694.966 524.521,698.809C524.521,701.069 526.501,703.328 531.359,703.95C532.66,704.122 534.468,704.346 536.786,704.573C545.827,705.475 550.007,710.676 550.007,716.157C550.007,723.56 543.453,727.855 533.055,727.855M475.896,693.044L475.896,704.911L495.957,704.911L495.957,710.336L475.896,710.336L475.896,727.515L468.548,727.515L468.548,687.281L499.406,687.281L499.406,693.044L475.896,693.044ZM431.244,678.407L438.536,678.407L438.536,684.51L431.244,684.51L431.244,678.407ZM419.321,678.407L426.61,678.407L426.61,684.51L419.321,684.51L419.321,678.407ZM444.073,720.621C441.754,724.126 436.501,727.854 428.926,727.854C421.357,727.854 416.1,724.126 413.782,720.621C412.201,718.247 411.69,717.061 411.69,707.398C411.69,697.734 412.201,696.548 413.782,694.177C416.1,690.669 421.357,686.941 428.926,686.941C436.501,686.941 441.754,690.669 444.073,694.177C445.654,696.548 446.161,697.734 446.161,707.398C446.161,717.061 445.654,718.247 444.073,720.621M436.389,695.982C434.917,694.401 432.374,693.044 428.926,693.044C425.481,693.044 422.938,694.401 421.469,695.982C419.549,698.017 419.038,699.147 419.038,707.398C419.038,715.648 419.549,716.781 421.469,718.813C422.938,720.394 425.481,721.751 428.926,721.751C432.374,721.751 434.917,720.394 436.389,718.813C438.309,716.781 438.816,715.648 438.816,707.398C438.816,699.147 438.309,698.017 436.389,695.982M361.782,727.516L361.782,687.281L369.13,687.281L369.13,721.752L392.636,721.752L392.636,727.516L361.782,727.516ZM322.16,727.855C314.588,727.855 309.331,724.124 307.016,720.623C305.432,718.248 304.924,717.062 304.924,707.399C304.924,697.735 305.432,696.547 307.016,694.175C309.331,690.671 314.588,686.942 322.16,686.942C331.313,686.942 337.643,692.311 339.112,698.865L331.372,698.865C330.239,695.756 326.794,693.045 322.16,693.045C318.712,693.045 316.169,694.399 314.7,695.983C312.78,698.019 312.272,699.148 312.272,707.399C312.272,715.649 312.78,716.779 314.7,718.814C316.169,720.395 318.712,721.752 322.16,721.752C327.696,721.752 332.047,718.248 332.047,713.219L332.047,711.127L322.216,711.127L322.216,705.363L339.395,705.363L339.395,713.558C339.395,721.525 331.767,727.855 322.16,727.855M280.846,727.516L277.118,718.531L258.805,718.531L255.077,727.516L247.337,727.516L264.912,687.281L271.011,687.281L288.589,727.516L280.846,727.516ZM268.017,695.532L267.905,695.532L260.897,713.106L275.026,713.106L268.017,695.532ZM221.012,727.516L221.012,709.941L201.912,709.941L201.912,727.516L194.564,727.516L194.564,687.281L201.912,687.281L201.912,704.517L221.012,704.517L221.012,687.281L228.36,687.281L228.36,727.516L221.012,727.516Z" style="fill-rule:nonzero;"/>
                </g>
            </g>
        </g>
    </g>
</svg>
