<?xml version="1.0" encoding="UTF-8" standalone="no"?>
<!DOCTYPE svg PUBLIC "-//W3C//DTD SVG 1.1//EN" "http://www.w3.org/Graphics/SVG/1.1/DTD/svg11.dtd">
<svg width="100%" height="100%" viewBox="0 0 200 200" version="1.1" xmlns="http://www.w3.org/2000/svg" xmlns:xlink="http://www.w3.org/1999/xlink" xml:space="preserve" xmlns:serif="http://www.serif.com/" style="fill-rule:evenodd;clip-rule:evenodd;stroke-linejoin:round;stroke-miterlimit:2;">
    <g transform="matrix(0.670265,0,0,0.670265,100,100)">
        <g transform="matrix(1,0,0,1,-141.735,-41.945)">
            <clipPath id="_clip1">
                <rect x="0" y="0" width="283.47" height="83.89"/>
            </clipPath>
            <g clip-path="url(#_clip1)">
                <g transform="matrix(1,0,0,1,-1.42,-1.42)">
                    <path d="M10.35,39C12.496,22.613 26.613,10.224 43.14,10.224C59.667,10.224 73.784,22.613 75.93,39L84.86,39C82.672,17.719 64.533,1.35 43.14,1.35C21.747,1.35 3.608,17.719 1.42,39L10.35,39Z" style="fill:rgb(0,59,97);fill-rule:nonzero;"/>
                </g>
                <g transform="matrix(1,0,0,1,-1.42,-1.42)">
                    <path d="M75.93,47.7C73.784,64.087 59.667,76.476 43.14,76.476C26.613,76.476 12.496,64.087 10.35,47.7L1.42,47.7C3.608,68.981 21.747,85.35 43.14,85.35C64.533,85.35 82.672,68.981 84.86,47.7L75.93,47.7Z" style="fill:rgb(0,59,97);fill-rule:nonzero;"/>
                </g>
                <path d="M36.22,59.94L18.23,41.95L36.22,23.95L41.72,29.45L29.23,41.95L41.72,54.44L36.22,59.94Z" style="fill:rgb(0,59,97);fill-rule:nonzero;"/>
                <path d="M47.23,59.94L41.72,54.44L54.22,41.95L41.72,29.45L47.23,23.95L65.22,41.95L47.23,59.94Z" style="fill:rgb(0,59,97);fill-rule:nonzero;"/>
                <g transform="matrix(1,0,0,1,-1.42,-1.42)">
                    <path d="M149.71,43.17C149.71,55.67 139.71,65.05 126.5,65.05L109.85,65.05L109.85,21.68L126.5,21.68C139.76,21.68 149.71,30.93 149.71,43.17ZM140.91,43.17C140.91,35.71 134.47,29.72 126.5,29.72L118.5,29.72L118.5,57L126.5,57C134.47,57 140.91,50.89 140.91,43.17Z" style="fill:rgb(0,59,97);fill-rule:nonzero;"/>
                </g>
                <g transform="matrix(1,0,0,1,-1.42,-1.42)">
                    <path d="M187.84,47.7L196.77,47.7C194.77,58.7 186.57,65.81 175.53,65.81C163,65.81 153,56.5 153,43.37C153,30.24 163,20.92 175.53,20.92C186.53,20.92 194.79,27.99 196.77,39.03L187.84,39.03C186.25,32.65 181.91,29.03 175.53,29.03C167.63,29.03 161.76,34.83 161.76,43.38C161.76,51.93 167.63,57.72 175.53,57.72C181.91,57.71 186.25,54.08 187.84,47.7Z" style="fill:rgb(0,59,97);fill-rule:nonzero;"/>
                </g>
                <g transform="matrix(1,0,0,1,-1.42,-1.42)">
                    <path d="M284.88,43.37C284.88,43.413 284.88,43.457 284.88,43.5C284.88,55.887 274.687,66.08 262.3,66.08C249.913,66.08 239.72,55.887 239.72,43.5C239.72,31.113 249.913,20.92 262.3,20.92C262.304,20.92 262.307,20.92 262.31,20.92C262.36,20.92 262.41,20.919 262.46,20.919C274.759,20.919 284.88,31.04 284.88,43.339C284.88,43.35 284.88,43.36 284.88,43.37ZM276.08,43.37C276.08,35.46 270.22,29.02 262.31,29.02C254.4,29.02 248.53,35.46 248.53,43.37C248.53,51.28 254.4,57.72 262.31,57.72C270.22,57.72 276.08,51.27 276.08,43.37Z" style="fill:rgb(0,59,97);fill-rule:nonzero;"/>
                </g>
                <g transform="matrix(1,0,0,1,-1.42,-1.42)">
                    <path d="M235.49,34.87L227,34.87C227,31.39 223.93,28.16 218.86,28.16C213.98,28.16 210.65,30.16 210.65,33.76C210.65,36.91 213.99,37.47 217.38,38.15L222.63,39.2C231.34,40.92 236.34,45.06 236.34,52.2C236.34,60.47 229.43,65.84 218.86,65.84C207.86,65.84 200.09,60.1 199.47,50.77L208.37,50.77C209.11,55.34 213.18,58.12 219.42,58.12C224.36,58.12 227.2,56.39 227.2,53.37C227.2,50.77 226.03,48.55 221.27,47.69L213.99,46.33C206.51,44.91 201.26,41.26 201.26,34.53C201.26,26.26 208.06,20.95 218.19,20.95C225.73,20.92 235.07,24.66 235.49,34.87Z" style="fill:rgb(0,59,97);fill-rule:nonzero;"/>
                </g>
            </g>
        </g>
    </g>
</svg>
