<?xml version="1.0" encoding="UTF-8" standalone="no"?>
<!DOCTYPE svg PUBLIC "-//W3C//DTD SVG 1.1//EN" "http://www.w3.org/Graphics/SVG/1.1/DTD/svg11.dtd">
<svg width="100%" height="100%" viewBox="0 0 200 200" version="1.1" xmlns="http://www.w3.org/2000/svg" xmlns:xlink="http://www.w3.org/1999/xlink" xml:space="preserve" xmlns:serif="http://www.serif.com/" style="fill-rule:evenodd;clip-rule:evenodd;stroke-linejoin:round;stroke-miterlimit:2;">
    <g transform="matrix(0.1875,0,0,0.1875,100,100)">
        <g transform="matrix(1,0,0,1,-400,-136)">
            <g id="Bounding_Box" transform="matrix(1,0,0,1,0,193)">
                <rect x="0" y="0" width="145.2" height="79" style="fill:none;"/>
            </g>
            <g id="EWE_on_dark" transform="matrix(7.9966,0,0,7.9966,-180.45,-180.16)">
                <g>
                    <path d="M48.6,22.6L47.3,30.7L35.8,30.7L35.1,35.6L44.8,35.6L43.7,42.9L34,42.9L33.2,48.3L44.7,48.3L43.5,56.4L22.6,56.4L27.7,22.6L48.6,22.6Z" style="fill:rgb(247,205,0);fill-rule:nonzero;"/>
                    <path d="M51.9,22.6L61.7,22.6L63.2,42L63.4,42L71.2,22.6L80.5,22.6L81.2,42.4L81.3,42.4C81.3,42.4 87.9,33.3 89.3,22.6L97.6,22.6C95.6,40.3 82.3,56.5 82.3,56.5L73.7,56.5L72.4,37.3L72.3,37.3L64.6,56.5L55.6,56.5L51.9,22.6Z" style="fill:rgb(247,205,0);fill-rule:nonzero;"/>
                    <path d="M122.6,22.6L121.3,30.7L109.8,30.7L109.1,35.6L118.8,35.6L117.7,42.9L108,42.9L107.2,48.3L118.7,48.3L117.4,56.4L96.6,56.4L101.7,22.6L122.6,22.6Z" style="fill:rgb(247,205,0);fill-rule:nonzero;"/>
                </g>
            </g>
        </g>
    </g>
</svg>
