<?xml version="1.0" encoding="UTF-8" standalone="no"?>
<!DOCTYPE svg PUBLIC "-//W3C//DTD SVG 1.1//EN" "http://www.w3.org/Graphics/SVG/1.1/DTD/svg11.dtd">
<svg width="100%" height="100%" viewBox="0 0 200 200" version="1.1" xmlns="http://www.w3.org/2000/svg" xmlns:xlink="http://www.w3.org/1999/xlink" xml:space="preserve" xmlns:serif="http://www.serif.com/" style="fill-rule:evenodd;clip-rule:evenodd;stroke-linejoin:round;stroke-miterlimit:2;">
    <g transform="matrix(0.285399,0,0,0.285399,100,100)">
        <g transform="matrix(1,0,0,1,-271.55,-99.2)">
            <g>
                <path d="M255.2,198.4L255.2,0L0.1,0L0,198.4L255.2,198.4" style="fill:rgb(177,177,176);fill-rule:nonzero;"/>
                <path d="M255.2,198.4L255.2,0L0.1,0L0,198.4L255.2,198.4" style="fill:none;fill-rule:nonzero;"/>
                <path d="M15.1,113.3L44.8,113.3C69.4,113.3 70.7,128.1 70.7,130.9C70.7,135 69.1,140.7 63.9,144.7C68.1,147.7 72.5,153.6 72.5,161.7C72.5,165.2 71.4,170.7 65,175.9C60.1,179.9 52.1,180.5 47.5,180.5L15.1,180.5L15.1,113.3M29.9,140.2L46.7,140.2C53,140.2 56.7,137.9 56.7,132.6C56.7,126.8 52.7,125 47.5,125L29.9,125L29.9,140.2ZM29.9,169L47.3,169C51.7,169 58.5,168.8 58.5,159.6C58.5,152 52.9,151.7 50.1,151.7L29.9,151.7L29.9,169Z" style="fill:white;fill-rule:nonzero;"/>
                <path d="M126.3,113.3L126.3,124.9L89.6,169L125.6,169L125.6,180.5L73,180.5L73,169L109,124.9L73,124.9L73,113.3L126.3,113.3" style="fill:white;fill-rule:nonzero;"/>
                <path d="M244.6,180.5L229.5,180.5L224.6,167L198,167L193,180.5L177.9,180.5L203,113.3L220,113.3L244.6,180.5M202.6,155.6L221,155.6L211.4,129.5L202.6,155.6Z" style="fill:white;fill-rule:nonzero;"/>
                <g>
                    <path d="M282.2,29.6L294,29.6C298.8,29.6 302,31.1 302,35.8C302,38.3 300.8,40 298.6,41C301.6,41.9 303.2,44.2 303.2,47.3C303.2,52.4 298.9,54.5 294.4,54.5L282.3,54.5L282.3,29.6L282.2,29.6ZM287.7,39.7L293.3,39.7C295.2,39.7 296.7,38.8 296.7,36.7C296.7,34.3 294.9,33.8 292.9,33.8L287.8,33.8L287.8,39.7L287.7,39.7ZM287.7,50.3L293.6,50.3C295.8,50.3 297.7,49.6 297.7,47C297.7,44.4 296.1,43.4 293.7,43.4L287.7,43.4L287.7,50.3Z" style="fill-rule:nonzero;"/>
                    <path d="M323.5,54.6L318.6,54.6L318.6,52.1L318.5,52.1C317.2,54.1 315.1,55.1 313,55.1C307.7,55.1 306.4,52.1 306.4,47.6L306.4,36.5L311.4,36.5L311.4,46.7C311.4,49.7 312.3,51.1 314.6,51.1C317.3,51.1 318.5,49.6 318.5,45.9L318.5,36.4L323.5,36.4L323.5,54.6Z" style="fill-rule:nonzero;"/>
                    <path d="M326.8,36.5L331.7,36.5L331.7,39L331.8,39C333.1,37 335.2,36 337.3,36C342.6,36 343.9,39 343.9,43.5L343.9,54.6L338.9,54.6L338.9,44.4C338.9,41.4 338,40 335.7,40C333,40 331.8,41.5 331.8,45.2L331.8,54.7L326.8,54.7L326.8,36.5Z" style="fill-rule:nonzero;"/>
                    <path d="M360.7,52.3C359.5,54.3 357.4,55.1 355.1,55.1C349.6,55.1 347,50.4 347,45.4C347,40.5 349.7,36 355,36C357.1,36 359.2,36.9 360.4,38.7L360.5,38.7L360.5,29.6L365.5,29.6L365.5,54.6L360.8,54.6L360.8,52.3L360.7,52.3ZM356.4,39.8C353.1,39.8 352,42.6 352,45.6C352,48.4 353.3,51.4 356.4,51.4C359.7,51.4 360.7,48.5 360.7,45.6C360.6,42.6 359.6,39.8 356.4,39.8Z" style="fill-rule:nonzero;"/>
                    <path d="M373.3,46.8C373.4,50 375,51.4 377.7,51.4C379.7,51.4 381.3,50.2 381.6,49.1L386,49.1C384.6,53.4 381.6,55.2 377.5,55.2C371.8,55.2 368.3,51.3 368.3,45.7C368.3,40.3 372,36.1 377.5,36.1C383.7,36.1 386.6,41.3 386.3,46.9L373.3,46.9L373.3,46.8ZM381.4,43.6C380.9,41.1 379.9,39.7 377.4,39.7C374.2,39.7 373.3,42.2 373.3,43.6L381.4,43.6Z" style="fill-rule:nonzero;"/>
                    <path d="M393.1,48.7C393.1,50.9 395,51.7 396.9,51.7C398.3,51.7 400.2,51.1 400.2,49.4C400.2,47.9 398.1,47.4 394.6,46.6C391.7,46 388.9,45 388.9,41.8C388.9,37.2 392.9,36 396.8,36C400.8,36 404.4,37.3 404.8,41.8L400.1,41.8C400,39.9 398.5,39.3 396.7,39.3C395.6,39.3 393.9,39.5 393.9,41C393.9,42.8 396.7,43 399.5,43.7C402.4,44.4 405.2,45.4 405.2,48.8C405.2,53.6 401.1,55.1 396.9,55.1C392.7,55.1 388.6,53.5 388.4,48.7L393.1,48.7Z" style="fill-rule:nonzero;"/>
                    <path d="M406.9,50.9L416.3,40.3L407.6,40.3L407.6,36.6L422.9,36.6L422.9,40.3L413.5,50.9L423.6,50.9L423.6,54.6L407,54.6L407,50.9L406.9,50.9Z" style="fill-rule:nonzero;"/>
                    <path d="M430.3,46.8C430.4,50 432,51.4 434.7,51.4C436.7,51.4 438.3,50.2 438.6,49.1L443,49.1C441.6,53.4 438.6,55.2 434.5,55.2C428.8,55.2 425.3,51.3 425.3,45.7C425.3,40.3 429,36.1 434.5,36.1C440.7,36.1 443.6,41.3 443.3,46.9L430.3,46.9L430.3,46.8ZM438.4,43.6C437.9,41.1 436.9,39.7 434.4,39.7C431.2,39.7 430.3,42.2 430.3,43.6L438.4,43.6Z" style="fill-rule:nonzero;"/>
                    <path d="M446.1,36.5L451,36.5L451,39L451.1,39C452.4,37 454.5,36 456.6,36C461.9,36 463.2,39 463.2,43.5L463.2,54.6L458.2,54.6L458.2,44.4C458.2,41.4 457.3,40 455,40C452.3,40 451.1,41.5 451.1,45.2L451.1,54.7L446.1,54.7L446.1,36.5Z" style="fill-rule:nonzero;"/>
                    <path d="M473.4,36.5L477,36.5L477,39.8L473.4,39.8L473.4,48.8C473.4,50.5 473.8,50.9 475.5,50.9C476,50.9 476.5,50.9 477,50.8L477,54.7C476.2,54.8 475.1,54.9 474.1,54.9C471.1,54.9 468.4,54.2 468.4,50.6L468.4,39.8L465.4,39.8L465.4,36.5L468.4,36.5L468.4,31.1L473.4,31.1L473.4,36.5Z" style="fill-rule:nonzero;"/>
                    <path d="M479.4,36.5L484.1,36.5L484.1,39.9L484.2,39.9C485.1,37.6 487.6,36 490,36C490.4,36 490.8,36.1 491.1,36.2L491.1,40.8C490.6,40.7 489.9,40.6 489.3,40.6C485.7,40.6 484.4,43.2 484.4,46.4L484.4,54.6L479.4,54.6L479.4,36.5Z" style="fill-rule:nonzero;"/>
                    <path d="M492.8,42.1C493.1,37.4 497.2,36 501.3,36C504.9,36 509.2,36.8 509.2,41.1L509.2,50.5C509.2,52.1 509.4,53.8 509.8,54.5L504.8,54.5C504.6,53.9 504.5,53.3 504.5,52.7C502.9,54.3 500.6,54.9 498.4,54.9C495,54.9 492.2,53.2 492.2,49.5C492.2,45.4 495.3,44.4 498.4,44C501.4,43.5 504.3,43.6 504.3,41.6C504.3,39.5 502.8,39.1 501.1,39.1C499.2,39.1 498,39.9 497.8,41.8L492.8,41.8L492.8,42.1ZM504.3,45.7C503.5,46.4 501.7,46.5 500.2,46.7C498.7,47 497.3,47.5 497.3,49.4C497.3,51.3 498.7,51.7 500.3,51.7C504.2,51.7 504.3,48.6 504.3,47.5L504.3,45.7Z" style="fill-rule:nonzero;"/>
                    <rect x="513.2" y="29.6" width="5" height="25" style="fill-rule:nonzero;"/>
                    <path d="M526.2,46.8C526.3,50 527.9,51.4 530.6,51.4C532.6,51.4 534.2,50.2 534.5,49.1L538.9,49.1C537.5,53.4 534.5,55.2 530.4,55.2C524.7,55.2 521.2,51.3 521.2,45.7C521.2,40.3 524.9,36.1 530.4,36.1C536.6,36.1 539.5,41.3 539.2,46.9L526.2,46.9L526.2,46.8ZM534.3,43.6C533.8,41.1 532.8,39.7 530.3,39.7C527.1,39.7 526.2,42.2 526.2,43.6L534.3,43.6Z" style="fill-rule:nonzero;"/>
                    <path d="M282.7,81.8L279.7,81.8L279.7,78.5L282.7,78.5L282.7,77.1C282.7,73.9 284.7,71.6 288.8,71.6C289.7,71.6 290.6,71.7 291.4,71.7L291.4,75.4C290.8,75.3 290.2,75.3 289.6,75.3C288.3,75.3 287.7,75.9 287.7,77.4L287.7,78.5L291.1,78.5L291.1,81.8L287.7,81.8L287.7,96.6L282.7,96.6L282.7,81.8Z" style="fill-rule:nonzero;"/>
                    <path d="M310.5,96.6L305.6,96.6L305.6,94.1L305.5,94.1C304.2,96.1 302.1,97.1 300,97.1C294.7,97.1 293.4,94.1 293.4,89.6L293.4,78.5L298.4,78.5L298.4,88.7C298.4,91.7 299.3,93.1 301.6,93.1C304.3,93.1 305.5,91.6 305.5,87.9L305.5,78.4L310.5,78.4L310.5,96.6ZM295.8,71.6L300.5,71.6L300.5,75.7L295.8,75.7L295.8,71.6ZM303,71.6L307.7,71.6L307.7,75.7L303,75.7L303,71.6Z" style="fill-rule:nonzero;"/>
                    <path d="M314,78.5L318.7,78.5L318.7,81.9L318.8,81.9C319.7,79.6 322.2,78 324.6,78C325,78 325.4,78.1 325.7,78.2L325.7,82.8C325.2,82.7 324.5,82.6 323.9,82.6C320.3,82.6 319,85.2 319,88.4L319,96.6L314,96.6L314,78.5Z" style="fill-rule:nonzero;"/>
                    <path d="M299,137.5C299,140.5 297.9,145.5 289.6,145.5C286,145.5 281.9,143.8 281.6,139.7L286.5,139.7C287,141.6 288.5,142.2 290.2,142.2C293,142.2 294.2,140.3 294.2,137.7L294.2,135.3L294.1,135.3C293,137.2 290.8,138.1 288.7,138.1C283.3,138.1 281,134 281,129C281,124.3 283.7,120 288.8,120C291.2,120 293,120.8 294.2,122.9L294.3,122.9L294.3,120.5L299,120.5L299,137.5ZM294.3,129.3C294.3,126.4 293.3,123.7 290.1,123.7C287.3,123.7 286.1,126.2 286.1,128.8C286.1,131.4 287.1,134.2 290.1,134.2C292.9,134.3 294.3,131.9 294.3,129.3Z" style="fill-rule:nonzero;"/>
                    <path d="M307.1,130.8C307.2,134 308.8,135.4 311.5,135.4C313.5,135.4 315.1,134.2 315.4,133.1L319.8,133.1C318.4,137.4 315.4,139.2 311.3,139.2C305.6,139.2 302.1,135.3 302.1,129.7C302.1,124.3 305.8,120.1 311.3,120.1C317.5,120.1 320.4,125.3 320.1,130.8L307.1,130.8ZM315.2,127.6C314.7,125.1 313.7,123.7 311.2,123.7C308,123.7 307.1,126.2 307.1,127.6L315.2,127.6Z" style="fill-rule:nonzero;"/>
                    <path d="M327,132.7C327,134.9 328.9,135.7 330.8,135.7C332.2,135.7 334.1,135.1 334.1,133.4C334.1,131.9 332,131.4 328.5,130.6C325.6,130 322.8,128.9 322.8,125.8C322.8,121.2 326.8,120 330.7,120C334.7,120 338.3,121.3 338.7,125.8L334,125.8C333.9,123.9 332.4,123.3 330.6,123.3C329.5,123.3 327.8,123.5 327.8,125C327.8,126.8 330.6,127 333.4,127.7C336.3,128.4 339.1,129.4 339.1,132.8C339.1,137.6 335,139.1 330.8,139.1C326.6,139.1 322.5,137.5 322.3,132.7L327,132.7Z" style="fill-rule:nonzero;"/>
                    <path d="M359.1,138.6L354.2,138.6L354.2,136.1L354.1,136.1C352.8,138.1 350.7,139.1 348.6,139.1C343.3,139.1 342,136.1 342,131.6L342,120.5L347,120.5L347,130.7C347,133.7 347.9,135.1 350.2,135.1C352.9,135.1 354.1,133.6 354.1,129.9L354.1,120.4L359.1,120.4L359.1,138.6Z" style="fill-rule:nonzero;"/>
                    <path d="M362.5,120.5L367.4,120.5L367.4,123L367.5,123C368.8,121 370.9,120 373,120C378.3,120 379.6,123 379.6,127.5L379.6,138.6L374.6,138.6L374.6,128.4C374.6,125.4 373.7,123.9 371.4,123.9C368.7,123.9 367.5,125.4 367.5,129.1L367.5,138.6L362.5,138.6L362.5,120.5Z" style="fill-rule:nonzero;"/>
                    <path d="M396.3,136.3C395.1,138.3 393,139.1 390.7,139.1C385.2,139.1 382.6,134.4 382.6,129.4C382.6,124.5 385.3,120 390.6,120C392.7,120 394.8,120.9 396,122.7L396.1,122.7L396.1,113.6L401.1,113.6L401.1,138.6L396.4,138.6L396.4,136.3L396.3,136.3ZM392,123.8C388.7,123.8 387.6,126.6 387.6,129.6C387.6,132.4 388.9,135.4 392,135.4C395.3,135.4 396.3,132.5 396.3,129.6C396.3,126.6 395.2,123.8 392,123.8Z" style="fill-rule:nonzero;"/>
                    <path d="M404.7,113.6L409.8,113.6L409.8,123L409.9,123C411.2,121 413.3,120 415.2,120C420.5,120 421.8,123 421.8,127.5L421.8,138.6L416.8,138.6L416.8,128.4C416.8,125.4 415.9,123.9 413.6,123.9C410.9,123.9 409.7,125.4 409.7,129.1L409.7,138.6L404.7,138.6L404.7,113.6Z" style="fill-rule:nonzero;"/>
                    <path d="M429.7,130.8C429.8,134 431.4,135.4 434.1,135.4C436.1,135.4 437.7,134.2 438,133.1L442.4,133.1C441,137.4 438,139.2 433.9,139.2C428.2,139.2 424.7,135.3 424.7,129.7C424.7,124.3 428.4,120.1 433.9,120.1C440.1,120.1 443,125.3 442.7,130.8L429.7,130.8ZM437.7,127.6C437.2,125.1 436.2,123.7 433.7,123.7C430.5,123.7 429.6,126.2 429.6,127.6L437.7,127.6Z" style="fill-rule:nonzero;"/>
                    <path d="M450.8,117.7L445.8,117.7L445.8,113.6L450.8,113.6L450.8,117.7ZM445.8,120.5L450.8,120.5L450.8,138.6L445.8,138.6L445.8,120.5Z" style="fill-rule:nonzero;"/>
                    <path d="M461,120.5L464.6,120.5L464.6,123.8L461,123.8L461,132.8C461,134.5 461.4,134.9 463.1,134.9C463.6,134.9 464.1,134.9 464.6,134.8L464.6,138.7C463.8,138.8 462.7,138.9 461.7,138.9C458.7,138.9 456,138.2 456,134.6L456,123.9L453,123.9L453,120.6L456,120.6L456,115.2L461,115.2L461,120.5Z" style="fill-rule:nonzero;"/>
                    <rect x="467.1" y="113.6" width="5" height="25" style="fill-rule:nonzero;"/>
                    <path d="M481.1,117.7L476.1,117.7L476.1,113.6L481.1,113.6L481.1,117.7ZM476.2,120.5L481.2,120.5L481.2,138.6L476.2,138.6L476.2,120.5Z" style="fill-rule:nonzero;"/>
                    <path d="M497.4,126.9C497.1,124.9 495.8,123.8 493.7,123.8C490.5,123.8 489.5,127 489.5,129.7C489.5,132.3 490.5,135.4 493.6,135.4C495.9,135.4 497.2,133.9 497.6,131.7L502.4,131.7C501.8,136.5 498.4,139.1 493.7,139.1C488.2,139.1 484.6,135.2 484.6,129.8C484.6,124.2 488,120 493.8,120C498.1,120 502,122.2 502.3,126.9L497.4,126.9Z" style="fill-rule:nonzero;"/>
                    <path d="M505.1,113.6L510.2,113.6L510.2,123L510.3,123C511.6,121 513.7,120 515.6,120C520.9,120 522.2,123 522.2,127.5L522.2,138.6L517.2,138.6L517.2,128.4C517.2,125.4 516.3,123.9 514,123.9C511.3,123.9 510.1,125.4 510.1,129.1L510.1,138.6L505.1,138.6L505.1,113.6Z" style="fill-rule:nonzero;"/>
                    <path d="M530,130.8C530.1,134 531.7,135.4 534.4,135.4C536.4,135.4 538,134.2 538.3,133.1L542.7,133.1C541.3,137.4 538.3,139.2 534.2,139.2C528.5,139.2 525,135.3 525,129.7C525,124.3 528.7,120.1 534.2,120.1C540.4,120.1 543.3,125.3 543,130.8L530,130.8ZM538.1,127.6C537.6,125.1 536.6,123.7 534.1,123.7C530.9,123.7 530,126.2 530,127.6L538.1,127.6Z" style="fill-rule:nonzero;"/>
                    <path d="M289,155.6L294.6,155.6L304,180.6L298.3,180.6L296.4,175L287,175L285,180.6L279.4,180.6L289,155.6ZM288.5,171L295,171L291.8,161.8L291.7,161.8L288.5,171Z" style="fill-rule:nonzero;"/>
                    <path d="M322.8,180.6L317.9,180.6L317.9,178.1L317.8,178.1C316.5,180.1 314.4,181.1 312.3,181.1C307,181.1 305.7,178.1 305.7,173.6L305.7,162.5L310.7,162.5L310.7,172.7C310.7,175.7 311.6,177.1 313.9,177.1C316.6,177.1 317.8,175.6 317.8,171.9L317.8,162.4L322.8,162.4L322.8,180.6Z" style="fill-rule:nonzero;"/>
                    <path d="M327.5,165.8L324.5,165.8L324.5,162.5L327.5,162.5L327.5,161.1C327.5,157.9 329.5,155.6 333.6,155.6C334.5,155.6 335.4,155.7 336.2,155.7L336.2,159.4C335.6,159.3 335,159.3 334.4,159.3C333.1,159.3 332.5,159.9 332.5,161.4L332.5,162.5L335.9,162.5L335.9,165.8L332.5,165.8L332.5,180.6L327.5,180.6L327.5,165.8Z" style="fill-rule:nonzero;"/>
                    <path d="M338.5,155.6L343.5,155.6L343.5,169L349.8,162.5L355.7,162.5L348.9,169.2L356.5,180.7L350.5,180.7L345.5,172.6L343.6,174.5L343.6,180.7L338.6,180.7L338.6,155.6L338.5,155.6Z" style="fill-rule:nonzero;"/>
                    <rect x="358.3" y="155.6" width="5" height="25" style="fill-rule:nonzero;"/>
                    <path d="M366.9,168.1C367.2,163.4 371.3,162 375.4,162C379,162 383.3,162.8 383.3,167.2L383.3,176.6C383.3,178.3 383.5,179.9 383.9,180.6L378.9,180.6C378.7,180 378.6,179.4 378.6,178.8C377,180.5 374.7,181 372.5,181C369.1,181 366.3,179.3 366.3,175.6C366.3,171.5 369.4,170.5 372.5,170.1C375.5,169.6 378.4,169.7 378.4,167.7C378.4,165.6 376.9,165.2 375.2,165.2C373.3,165.2 372.1,166 371.9,167.9L366.9,167.9L366.9,168.1ZM369.3,155.6L374,155.6L374,159.7L369.3,159.7L369.3,155.6ZM378.4,171.8C377.6,172.5 375.8,172.6 374.3,172.9C372.8,173.2 371.4,173.7 371.4,175.6C371.4,177.5 372.8,177.9 374.4,177.9C378.3,177.9 378.4,174.8 378.4,173.7L378.4,171.8ZM376.6,155.6L381.3,155.6L381.3,159.7L376.6,159.7L376.6,155.6Z" style="fill-rule:nonzero;"/>
                    <path d="M387.2,162.5L391.9,162.5L391.9,165.9L392,165.9C392.9,163.6 395.4,162 397.8,162C398.2,162 398.6,162.1 398.9,162.2L398.9,166.8C398.4,166.7 397.7,166.6 397.1,166.6C393.5,166.6 392.2,169.2 392.2,172.4L392.2,180.6L387.2,180.6L387.2,162.5Z" style="fill-rule:nonzero;"/>
                    <path d="M418,180.6L413.1,180.6L413.1,178.1L413,178.1C411.7,180.1 409.6,181.1 407.5,181.1C402.2,181.1 400.9,178.1 400.9,173.6L400.9,162.5L405.9,162.5L405.9,172.7C405.9,175.7 406.8,177.1 409.1,177.1C411.8,177.1 413,175.6 413,171.9L413,162.4L418,162.4L418,180.6Z" style="fill-rule:nonzero;"/>
                    <path d="M421.4,162.5L426.3,162.5L426.3,165L426.4,165C427.7,163 429.8,162 431.9,162C437.2,162 438.5,165 438.5,169.5L438.5,180.6L433.5,180.6L433.5,170.4C433.5,167.4 432.6,165.9 430.3,165.9C427.6,165.9 426.4,167.4 426.4,171.1L426.4,180.6L421.4,180.6L421.4,162.5Z" style="fill-rule:nonzero;"/>
                    <path d="M459.8,179.5C459.8,182.5 458.8,187.5 450.4,187.5C446.8,187.5 442.7,185.8 442.4,181.7L447.3,181.7C447.8,183.6 449.3,184.2 451,184.2C453.8,184.2 455,182.3 455,179.7L455,177.3C453.9,179.2 451.7,180.1 449.6,180.1C444.2,180.1 441.9,176 441.9,171C441.9,166.3 444.6,162 449.7,162C452.1,162 453.9,162.8 455.1,164.9L455.2,164.9L455.2,162.5L459.9,162.5L459.9,179.5L459.8,179.5ZM455,171.3C455,168.4 454,165.7 450.8,165.7C448,165.7 446.8,168.2 446.8,170.8C446.8,173.4 447.8,176.2 450.8,176.2C453.6,176.3 455,173.9 455,171.3Z" style="fill-rule:nonzero;"/>
                </g>
                <path d="M148.3,182.6C155.6,182.6 158.6,179.6 162.7,175.3L162.7,182.3C162.8,187.8 156.8,191.9 150.7,191.9C144.4,191.9 141,189.1 141,186.3L126.5,186.3C126.5,191.5 129.8,195.9 136,198.4L164,198.4C165.2,197.9 166.3,197.4 167.3,196.8C172.3,193.8 175.7,188 175.7,181.8L175.7,130.6L162.8,130.6L162.8,138.1C159,133.9 157.1,130.2 148.6,129.7C141.2,129.2 136.3,133.2 133.6,135.7C123.6,145.4 122.8,167.3 133,177.1C137.2,181.2 140.8,182.6 148.3,182.6ZM140.6,147C143.2,142.9 147,141.4 150.5,141.4C154,141.4 157.8,142.9 160.4,147C161.5,149 163,152.6 163,156.8C163,161 161.5,164.6 160.4,166.6C157.8,170.7 154,172.2 150.5,172.2C147,172.2 143.2,170.7 140.6,166.6C139.5,164.7 138,161 138,156.8C138,152.7 139.5,149 140.6,147Z" style="fill:white;fill-rule:nonzero;"/>
            </g>
        </g>
    </g>
</svg>
