<?xml version="1.0" encoding="UTF-8" standalone="no"?>
<!DOCTYPE svg PUBLIC "-//W3C//DTD SVG 1.1//EN" "http://www.w3.org/Graphics/SVG/1.1/DTD/svg11.dtd">
<svg width="100%" height="100%" viewBox="0 0 200 200" version="1.1" xmlns="http://www.w3.org/2000/svg" xmlns:xlink="http://www.w3.org/1999/xlink" xml:space="preserve" xmlns:serif="http://www.serif.com/" style="fill-rule:evenodd;clip-rule:evenodd;stroke-linejoin:round;stroke-miterlimit:2;">
    <g transform="matrix(0.404762,0,0,0.404762,100,100)">
        <g transform="matrix(1,0,0,1,-210,-75)">
            <path d="M60.05,0.552C60.05,0.552 44.95,25.836 44.95,48.838C44.95,73.42 63.035,86.94 85.861,86.94C111.497,86.94 128.353,79.214 173.127,67.45L420,2.308C420,2.308 210.702,93.085 110.619,134.523C90.778,142.776 72.166,149.448 48.286,149.448C21.948,149.448 0,133.645 0,107.308C0,87.291 6.497,72.366 17.383,53.93C34.766,24.431 60.05,0.552 60.05,0.552Z" style="fill-rule:nonzero;"/>
        </g>
    </g>
</svg>
