<?xml version="1.0" encoding="UTF-8" standalone="no"?>
<!DOCTYPE svg PUBLIC "-//W3C//DTD SVG 1.1//EN" "http://www.w3.org/Graphics/SVG/1.1/DTD/svg11.dtd">
<svg width="100%" height="100%" viewBox="0 0 200 200" version="1.1" xmlns="http://www.w3.org/2000/svg" xmlns:xlink="http://www.w3.org/1999/xlink" xml:space="preserve" xmlns:serif="http://www.serif.com/" style="fill-rule:evenodd;clip-rule:evenodd;stroke-linejoin:round;stroke-miterlimit:2;">
    <g transform="matrix(0.0930748,0,0,0.0930748,100,100)">
        <g transform="matrix(1,0,0,1,-752.083,-402.083)">
            <g transform="matrix(4.16667,0,0,4.16667,0,0)">
                <path d="M0.24,190.977L0.24,158.211L7.501,158.211L7.501,161.041C8.798,159.814 11.511,157.084 16.471,157.084C19.3,157.084 23.615,158.328 26.318,161.64C29.34,165.239 29.34,170.727 29.34,173.269L29.34,190.977L21.493,190.977L21.493,174.8C21.493,172.087 21.493,164.299 14.882,164.299C13.454,164.299 10.92,165.006 9.501,167.181C8.082,169.196 8.082,172.616 8.082,175.391L8.082,190.977L0.24,190.977ZM39.354,171.793L57.464,171.793C56.583,166.537 52.514,164.12 48.624,164.12C45.728,164.12 40.817,165.713 39.354,171.793ZM39.586,178.104C39.944,180.235 43.015,184.836 48.624,184.836C52.093,184.836 54.703,183.359 56.167,180.655L64.439,180.655C62.545,186.555 56.287,192.043 48.624,192.043C38.875,192.043 31.323,184.246 31.323,174.684C31.323,165.418 38.462,156.904 48.557,156.904C58.941,156.904 65.504,165.892 65.504,174.156C65.504,175.696 65.253,177.047 65.029,178.104L39.586,178.104ZM75.576,190.977L80.41,190.977L86.614,169.724L86.721,169.724L92.863,190.977L97.706,190.977L109.685,158.211L101.305,158.211L95.28,178.22L95.164,178.22L89.85,158.211L83.592,158.211L78.221,178.22L78.1,178.22L72.147,158.211L63.767,158.211L75.576,190.977ZM132.245,174.156C132.245,181.417 137.505,184.836 142.111,184.836C147.25,184.836 151.556,180.879 151.556,174.514C151.556,168.13 146.963,164.299 141.995,164.299C135.979,164.299 132.245,169.384 132.245,174.156ZM124.882,147.289L132.729,147.289L132.729,161.174C135.432,158.453 139.282,157.084 142.943,157.084C152.925,157.084 159.416,165.776 159.416,174.442C159.416,181.004 155.097,192.034 143.123,192.034C136.802,192.034 134.027,189.205 132.075,187.02L132.075,190.977L124.882,190.977L124.882,147.289ZM188.624,174.514C188.624,167.718 183.713,164.299 179.054,164.299C172.621,164.299 169.317,169.849 169.317,174.738C169.317,180.289 173.445,184.836 179.054,184.836C184.483,184.836 188.624,180.592 188.624,174.514ZM196.059,190.968L188.847,190.968L188.847,186.913C186.373,189.849 181.529,192.043 177.397,192.043C168.96,192.043 161.466,185.31 161.466,174.388C161.466,164.343 168.785,157.084 177.877,157.084C184.537,157.084 188.494,161.873 188.736,162.356L188.847,162.356L188.847,158.211L196.059,158.211L196.059,190.968ZM208.083,147.289L200.226,147.289L200.226,190.977L208.083,190.977L208.083,147.289ZM237.589,174.514C237.589,167.718 232.688,164.299 228.029,164.299C221.596,164.299 218.288,169.849 218.288,174.738C218.288,180.289 222.415,184.836 228.029,184.836C233.462,184.836 237.589,180.592 237.589,174.514ZM245.03,190.968L237.827,190.968L237.827,186.913C235.342,189.849 230.508,192.043 226.373,192.043C217.93,192.043 210.437,185.31 210.437,174.388C210.437,164.343 217.751,157.084 226.856,157.084C233.512,157.084 237.473,161.873 237.707,162.356L237.827,162.356L237.827,158.211L245.03,158.211L245.03,190.968ZM249.21,190.977L257.052,190.977L257.052,175.391C257.052,172.616 257.052,169.196 258.471,167.181C259.89,165.006 262.433,164.299 263.847,164.299C270.46,164.299 270.46,172.087 270.46,174.8L270.46,190.977L278.315,190.977L278.315,173.269C278.315,170.727 278.315,165.239 275.289,161.64C272.585,158.328 268.279,157.084 265.441,157.084C260.472,157.084 257.769,159.814 256.47,161.041L256.47,158.211L249.21,158.211L249.21,190.977ZM306.202,180.289C304.134,183.601 301.546,184.836 298.942,184.836C293.033,184.836 289.085,180.171 289.085,174.568C289.085,167.835 293.812,164.299 298.584,164.299C303.431,164.299 305.253,167.423 306.202,169.071L315.065,169.071C311.695,158.972 302.715,157.084 298.584,157.084C289.559,157.084 281.234,164.416 281.234,174.442C281.234,185.31 290.262,192.034 298.651,192.034C306.323,192.034 312.402,187.611 315.065,180.289L306.202,180.289ZM324.304,171.793L342.419,171.793C341.538,166.537 337.469,164.12 333.57,164.12C330.687,164.12 325.782,165.713 324.304,171.793ZM324.546,178.104C324.89,180.235 327.953,184.836 333.57,184.836C337.062,184.836 339.649,183.359 341.122,180.655L349.389,180.655C347.501,186.555 341.243,192.043 333.57,192.043C323.83,192.043 316.269,184.246 316.269,174.684C316.269,165.418 323.418,156.904 333.507,156.904C343.901,156.904 350.45,165.892 350.45,174.156C350.45,175.696 350.212,177.047 349.98,178.104L324.546,178.104ZM181.546,44.635L219.81,47.114L218.337,49.657L87.787,58.133L81.977,68.218L203.261,75.868L201.797,78.408L134.286,82.345L139.398,101.497L186.837,104.397L185.356,106.949L141.614,110.029L145.728,126.188L229.246,126.152C249.353,126.152 285.503,112.848 289.703,84.926C292.071,69.18 278.355,63.102 272.854,62.45C298.79,55.141 307.634,37.699 309.514,30.77C315.763,7.896 299.671,0.118 277.921,0.118L207.178,0.127L198.261,15.62L236.399,18.283L234.966,20.85L193.731,23.493L181.546,44.635ZM250.016,24.782L261.699,24.796C266.73,24.782 270.522,30.668 267.697,37.58C264.635,45.033 256.265,48.708 248.225,48.751L236.158,48.824L250.016,24.782ZM236.104,72.898C240.307,72.898 246.319,77.275 243.042,85.754C239.514,94.885 228.029,98.085 221.614,98.085L207.778,98.085L222.308,72.907L236.104,72.898ZM54.394,116.143L48.57,126.224L108.584,126.17L116.954,111.756L54.394,116.143ZM115.392,10.212L173.078,13.827L169.434,0.158L121.207,0.127L115.392,10.212ZM104.497,29.129L98.691,39.211L181.09,44.635L175.835,24.635L104.497,29.129ZM71.09,87.135L65.28,97.229L123.346,100.485L133.848,82.372L71.09,87.135ZM359.38,187.047C359.38,184.934 357.787,183.35 355.754,183.35C353.705,183.35 352.128,184.934 352.128,187.047C352.128,189.205 353.705,190.762 355.754,190.762C357.787,190.762 359.38,189.205 359.38,187.047ZM351.265,187.047C351.265,184.504 353.337,182.625 355.754,182.625C358.176,182.625 360.24,184.504 360.24,187.047C360.24,189.608 358.176,191.479 355.754,191.479C353.337,191.479 351.265,189.608 351.265,187.047ZM354.824,186.752L355.754,186.752C356.704,186.752 357.026,186.465 357.026,185.911C357.026,185.427 356.784,185.149 355.876,185.149L354.824,185.149L354.824,186.752ZM354.824,189.608L354.036,189.608L354.036,184.504L355.987,184.504C357.21,184.504 357.804,184.961 357.804,185.956C357.804,186.869 357.227,187.271 356.47,187.361L357.925,189.608L357.071,189.608L355.701,187.387L354.824,187.387L354.824,189.608Z" style="fill:rgb(197,17,48);fill-rule:nonzero;"/>
            </g>
        </g>
    </g>
</svg>
